<svg width="420" height="94" viewBox="0 0 420 94" fill="none" xmlns="http://www.w3.org/2000/svg">
<path fill-rule="evenodd" clip-rule="evenodd" d="M47.1803 0.797302C21.4561 0.797302 0.602417 21.6509 0.602417 47.3752C0.602417 73.0995 21.4561 93.9531 47.1803 93.9531H368.686C342.974 93.9386 322.135 73.0905 322.135 47.3752C322.135 21.6509 342.989 0.797302 368.713 0.797302C394.437 0.797302 415.291 21.6509 415.291 47.3752C415.291 51.4141 414.777 55.3329 413.811 59.0697C414.777 55.3329 415.291 51.4141 415.291 47.3752C415.291 21.6509 394.437 0.797302 368.713 0.797302H368.713H47.1803Z" fill="#FFCA56"/>
<circle cx="375.079" cy="47.3752" r="44.6357" fill="#FFCA56"/>
<path d="M389.034 48.0823C389.425 47.6918 389.425 47.0586 389.034 46.6681L382.67 40.3041C382.28 39.9136 381.646 39.9136 381.256 40.3041C380.865 40.6946 380.865 41.3278 381.256 41.7183L386.913 47.3752L381.256 53.032C380.865 53.4226 380.865 54.0557 381.256 54.4463C381.646 54.8368 382.28 54.8368 382.67 54.4463L389.034 48.0823ZM361.83 48.3752H388.327V46.3752H361.83V48.3752Z" fill="#191816"/>
</svg>
