<svg width="25" height="25" viewBox="0 0 25 25" fill="none" xmlns="http://www.w3.org/2000/svg">
<path d="M23.9665 17.8074L20.6172 14.4582C19.421 13.262 17.3876 13.7405 16.9091 15.2955C16.5502 16.3721 15.3541 16.9702 14.2775 16.7309C11.8852 16.1328 8.65553 13.0228 8.05744 10.5108C7.69859 9.4342 8.41629 8.23803 9.49284 7.87923C11.0479 7.40076 11.5263 5.36728 10.3302 4.17111L6.98089 0.821836C6.02396 -0.0154818 4.58855 -0.0154818 3.75124 0.821836L1.47852 3.09456C-0.794204 5.48689 1.71775 11.8266 7.33974 17.4486C12.9617 23.0706 19.3014 25.7022 21.6938 23.3098L23.9665 21.0371C24.8038 20.0801 24.8038 18.6447 23.9665 17.8074Z" fill="#FFCA56"/>
</svg>
