<svg width="22" height="29" viewBox="0 0 22 29" fill="none" xmlns="http://www.w3.org/2000/svg">
<path d="M10.9022 0.0878906C8.10991 0.0917016 5.43303 1.23107 3.45857 3.25616C1.48411 5.28125 0.373222 8.02677 0.369507 10.8907C0.369507 18.6462 10.1825 28.3597 10.5994 28.7693C10.6805 28.8501 10.7891 28.8953 10.9022 28.8953C11.0153 28.8953 11.1239 28.8501 11.205 28.7693C11.622 28.3597 21.4349 18.6462 21.4349 10.8907C21.4312 8.02677 20.3203 5.28125 18.3459 3.25616C16.3714 1.23107 13.6945 0.0917016 10.9022 0.0878906ZM10.9022 15.842C9.94743 15.842 9.01409 15.5516 8.22021 15.0075C7.42633 14.4635 6.80758 13.6902 6.4422 12.7854C6.07682 11.8807 5.98122 10.8852 6.16749 9.92473C6.35376 8.96428 6.81353 8.08204 7.48867 7.38959C8.16381 6.69715 9.02398 6.22558 9.96042 6.03454C10.8969 5.84349 11.8675 5.94154 12.7496 6.31629C13.6317 6.69104 14.3857 7.32566 14.9161 8.13989C15.4466 8.95413 15.7297 9.91141 15.7297 10.8907C15.7289 12.2036 15.22 13.4625 14.3149 14.3908C13.4097 15.3192 12.1823 15.8411 10.9022 15.842Z" fill="#FFCA56"/>
</svg>
